<?xml version="1.0" encoding="UTF-8"?>
<svg width="346px" height="192px" viewBox="0 0 346 192" version="1.1" xmlns="http://www.w3.org/2000/svg" xmlns:xlink="http://www.w3.org/1999/xlink">
    <title>Payment.Methods.Vanilla</title>
    <g id="Payment.Methods.Vanilla" stroke="none" stroke-width="1" fill="none" fill-rule="evenodd" opacity="0.76436942">
        <g id="Group" transform="translate(20.000000, 12.000000)">
            <g id="Asset-1" fill-rule="nonzero">
                <path d="M9.41813665,65.6362733 C15.3674534,65.6362733 15.2318012,65.6362733 16.8144099,71.5791304 C23.1254658,95.0017391 29.5334161,118.398509 35.8832298,141.814658 C36.8392547,145.335155 37.5045963,148.920248 38.6867081,152.395528 C39.2034783,153.907081 40.6827329,155.089193 41.7227329,156.426335 C42.7175155,155.13441 44.2290683,154.036273 44.6231056,152.602236 C49.8424845,133.772422 54.9003727,114.890932 60.0034783,96.0223602 C62.503354,86.804472 65.035528,77.5930435 67.5031056,68.362236 C67.9875776,66.5470807 68.9629814,65.5910559 70.9073292,65.6556522 C73.0583851,65.7202484 75.2159006,65.6556522 77.3669565,65.6879503 C79.5180124,65.7202484 80.5515528,66.7473292 79.9120497,69.0017391 C75.5410352,84.5048447 71.1743271,100.00795 66.8119255,115.511056 C63.0395031,128.940621 59.331677,142.383106 55.5463354,155.812671 C52.7686957,165.657143 43.4086957,169.720248 34.4750311,165.088696 C30.6896894,163.150807 29.0101863,159.707826 27.9443478,155.928944 C19.9817805,127.609938 12.0493582,99.284472 4.14708075,70.9525466 C2.67428571,65.6491925 2.68074534,65.6491925 9.41813665,65.6362733 Z" id="Path" fill="#000000"></path>
                <path d="M17.731677,55.778882 C13.8559006,55.778882 9.98012422,55.6819876 6.10434783,55.8111801 C3.74012422,55.8951553 2.5773913,55.3008696 1.86037267,52.710559 C-4.18583851,30.7478261 10.2578882,6.57590062 32.5888199,1.49863354 C55.9145342,-3.81118012 77.6059627,10.1803727 83.0901863,33.2154037 C84.7058497,39.8485576 84.5072749,46.7942119 82.5152795,53.3242236 C82.3021118,54.028323 81.9726708,55.2621118 81.6432298,55.2621118 C77.8062112,55.449441 73.9562733,55.4559006 70.112795,55.3719255 C69.9288188,54.4443137 69.9288188,53.4895994 70.112795,52.5619876 C74.5440994,39.7848447 70.5843478,26.2131677 59.7192547,18.3259627 C50.6370186,11.7436025 40.5987578,10.4775155 30.3990062,15.0961491 C20.0313043,19.7987578 14.2951553,28.2608696 12.8029814,39.5910559 C12.428323,42.4268323 13.1195031,43.7122981 16.3234783,43.5314286 C20.9356522,43.2665839 25.5801242,43.5314286 30.2052174,43.4474534 C32.7890683,43.3957764 33.8742857,44.3453416 33.8807453,47.0325466 C33.9130435,56.592795 34.3910559,55.7401242 25.4832298,55.6690683 C22.8993789,55.6690683 20.315528,55.6690683 17.731677,55.6690683 L17.731677,55.778882 Z" id="Path" fill="#000000"></path>
                <path d="M279.101118,119.890683 C275.225342,121.227826 271.711304,123.030062 267.97764,123.604969 C264.175007,124.116403 260.315034,124.016087 256.544099,123.307826 C250.769193,122.313043 246.738385,116.777143 246.266832,110.046211 C246.124438,107.895356 246.124438,105.737439 246.266832,103.586584 C246.790062,95.4603727 252.351801,90.3572671 261.89913,89.4529193 C266.705093,89.0007453 271.549814,88.8069565 276.381615,88.7681988 C278.655404,88.7681988 279.514534,87.9607453 279.333665,85.7450932 C279.223851,84.4531677 279.391801,83.1612422 279.333665,81.8693168 C279.004224,76.0556522 275.59354,72.3930435 269.728199,72.3284472 C264.256894,72.2638509 258.746832,72.7741615 253.307826,73.077764 C251.369938,73.1875776 249.483727,73.4459627 249.477267,70.6360248 C249.477267,68.4074534 248.954037,66.178882 252.455155,65.7396273 C260.68472,64.7125466 268.901366,63.5498137 277.072795,65.8752795 C283.609938,67.7356522 287.285466,72.5286957 287.763478,78.9754037 C288.409441,87.7540373 288.176894,96.5972671 288.273789,105.414658 C288.325466,110.149565 288.273789,114.884472 288.273789,119.625839 C288.273789,121.608944 288.402981,123.798758 285.425093,123.501615 C283.067329,123.269068 279.611429,124.987329 279.430559,120.407453 C279.385342,120.226584 279.198012,120.052174 279.101118,119.890683 Z M279.314286,104.284224 C279.314286,102.139627 279.23677,99.9885714 279.314286,97.8245963 C279.40472,95.8867081 278.54559,95.0598758 276.665839,95.1503106 C272.144099,95.3634783 267.62236,95.3053416 263.178137,95.8673292 C259.948323,96.2807453 256.776646,97.76 255.84,101.312795 C254.696646,105.608447 254.231553,110.104348 257.131925,113.934907 C258.191776,115.26801 259.740928,116.121671 261.434037,116.30559 C265.219379,116.363727 269.18559,116.350807 272.777143,115.330186 C279.359503,113.463354 279.23677,113.153292 279.281988,106.519255 C279.320738,105.789317 279.320738,105.03354 279.314286,104.284224 L279.314286,104.284224 Z" id="Shape" fill="#000000"></path>
                <path d="M120.433292,119.94236 C116.292671,121.273043 112.223106,123.139876 107.966211,123.785839 C104.361739,124.328447 100.544099,123.508075 96.8298137,123.178634 C95.9780405,123.029134 95.1703484,122.691492 94.4655901,122.190311 C88.1351553,118.262857 87.030559,112.022857 87.2049689,105.324224 C87.3729193,99.0713043 89.6337888,94.0198758 95.8027329,91.416646 C102.120248,88.7488199 108.793043,88.7488199 115.465839,88.7100621 C120.63354,88.677764 120.63354,88.7100621 120.426832,83.6392547 C120.026335,75.0221118 117.067826,72.1281988 108.373168,72.2832298 C103.431553,72.3736646 98.5093168,72.9291925 93.5677019,73.0583851 C92.6439752,73.0583851 90.8546584,71.8891925 90.8998758,71.3853416 C91.0549068,69.5637267 89.5045963,66.6310559 92.3726708,66.0949068 C100.724969,64.531677 109.167702,63.5691925 117.603975,65.7331677 C125.097143,67.6710559 128.869565,73.1100621 129.14087,80.2931677 C129.65118,93.8583851 129.425093,107.423602 129.321739,120.956522 C129.321739,121.815652 127.829565,123.262609 126.867081,123.41118 C122.048199,124.166957 121.33764,123.650186 120.433292,119.94236 Z M120.484969,104.18087 L120.484969,104.18087 C120.484969,102.352795 120.355776,100.505342 120.517267,98.696646 C120.756273,96.112795 120.006957,94.8790062 117.16472,95.1309317 C113.741118,95.4345342 110.285217,95.3763975 106.829317,95.576646 C97.3724224,96.1321739 94.6787578,101.803727 96.8427329,111.215404 C97.5662112,114.367702 99.6655901,116.383106 102.972919,116.428323 C106.280248,116.47354 109.871801,116.492919 113.114534,115.679006 C120.355776,113.87677 120.388075,113.547329 120.478509,106.118758 C120.491429,105.472795 120.484969,104.826832 120.484969,104.18087 Z" id="Shape" fill="#000000"></path>
                <path d="M147.014658,68.2265839 C152.02087,67.0121739 156.897888,65.3326708 161.910559,64.7448447 C168.64795,63.9503106 175.126957,65.4424845 178.518261,72.037764 C180.413366,75.7545497 181.492524,79.8333259 181.683478,84.0009938 C182.096894,95.9254658 181.870807,107.901615 181.844969,119.813168 C181.844969,123.501615 181.65118,123.430559 176.554534,123.553292 C173.557267,123.630807 172.581863,122.474534 172.607702,119.580621 C172.711056,108.50236 172.446211,97.4176398 172.717516,86.3393789 C173.021118,74.066087 166.348323,70.6295652 155.838509,73.1359006 C155.528447,73.2134161 155.192547,73.2715528 154.895404,73.3490683 C146.704596,75.4032298 146.63354,75.4807453 146.63354,83.858882 C146.63354,95.6929193 146.63354,107.535569 146.63354,119.386832 C146.63354,123.469317 146.517267,123.372422 141.775901,123.58559 C138.623602,123.727702 137.712795,122.623106 137.738634,119.509565 C137.867826,103.160248 137.738634,86.8109317 137.848447,70.4616149 C137.848447,68.6012422 136.59528,65.8817391 140.04472,65.3391304 C144.618137,64.5962733 145.916522,65.190559 147.014658,68.2265839 Z" id="Path" fill="#000000"></path>
                <path d="M219.627329,83.529441 C219.627329,95.587412 219.627329,107.645383 219.627329,119.703354 C219.627329,123.57913 219.549814,123.424099 214.498385,123.57913 C211.494658,123.682484 210.622609,122.610186 210.622609,119.658137 C210.700124,95.5421946 210.682899,71.4413251 210.570932,47.355528 C210.570932,43.6993789 212.579876,43.7575155 215.150807,43.8027329 C217.721739,43.8479503 219.756522,43.6477019 219.672547,47.3813665 C219.498137,59.4285714 219.627329,71.4757764 219.627329,83.529441 Z" id="Path" fill="#000000"></path>
                <path d="M230.027329,83.3291925 C230.027329,71.3853416 230.130683,59.4285714 229.956273,47.510559 C229.911056,44.2807453 231.248199,43.6929193 234.012919,43.7704348 C238.68323,43.8931677 238.954534,43.9771429 238.954534,47.5751553 C238.954534,71.5575983 238.954534,95.5443478 238.954534,119.535404 C238.954534,123.41118 238.818882,123.533913 234.633043,123.540373 C230.111304,123.540373 230.066087,123.495155 230.059627,119.464348 C230.059627,107.406377 230.059627,95.3613251 230.059627,83.3291925 L230.027329,83.3291925 Z" id="Path" fill="#000000"></path>
                <path d="M200.074037,94.310559 C200.074037,102.901863 199.970683,111.499627 200.132174,120.090932 C200.190311,123.178634 198.704596,123.75354 196.178882,123.57913 C193.834037,123.41118 191.069317,124.289689 191.095155,120.194286 C191.19205,103.121491 191.095155,86.042236 191.140373,68.9629814 C191.140373,65.5652174 191.71528,65.2874534 196.262857,65.2228571 C198.846708,65.2228571 200.209689,65.8688199 200.138634,68.8531677 C199.970683,77.341118 200.080497,85.8226087 200.080497,94.310559 L200.074037,94.310559 Z" id="Path" fill="#000000"></path>
                <path d="M200.248447,49.7391304 L200.248447,50.3850932 C200.248447,55.501118 197.664596,57.4390062 192.826335,55.4817391 C191.818634,55.0747826 191.00472,52.6847205 191.120994,51.2959006 C191.35354,48.6474534 189.28646,45.1334161 192.722981,43.5055901 C194.376646,42.7239752 196.73441,43.2213665 198.723975,43.5055901 C199.305342,43.5831056 200.015901,44.7975155 200.145093,45.5985093 C200.294979,46.9734174 200.329551,48.3584567 200.248447,49.7391304 L200.248447,49.7391304 Z" id="Path" fill="#000000"></path>
                <path d="M311.463851,68.1942857 C311.412174,72.9744099 307.736646,76.682236 303.137391,76.5918012 C298.538137,76.5013665 295.049938,72.7806211 295.095155,67.9359006 C295.067581,65.7095835 295.930043,63.5644036 297.491009,61.9767538 C299.051976,60.389104 301.182231,59.4904094 303.408696,59.4802484 C307.891677,59.5125466 311.509068,63.4335404 311.463851,68.1942857 Z M296.445217,68.2330435 C296.509814,72.2121739 299.771925,75.4678261 303.589565,75.3709317 C307.077764,75.2804969 310.159006,71.7858385 310.139718,67.9423602 C310.120248,64.098882 306.832298,60.7786335 303.279503,60.7850838 C299.52646,60.7915528 296.380621,64.2216149 296.445217,68.2330435 Z" id="Shape" fill="#000000"></path>
                <path d="M279.314286,104.284224 C279.314286,105.03354 279.314286,105.789317 279.314286,106.538634 C279.314286,113.172671 279.391801,113.482733 272.809441,115.349565 C269.211429,116.370186 265.251677,116.383106 261.466335,116.324969 C259.773226,116.14105 258.224074,115.287389 257.164224,113.954286 C254.250932,110.123727 254.716025,105.627826 255.872298,101.332174 C256.808944,97.7793789 259.961242,96.3001242 263.210435,95.8867081 C267.661118,95.3247205 272.195776,95.3828571 276.698137,95.1696894 C278.577888,95.0792547 279.437019,95.8931677 279.346584,97.8439752 C279.23677,99.9885714 279.314286,102.139627 279.314286,104.284224 Z" id="Path" fill="#FFFFFF"></path>
                <path d="M120.484969,104.18087 C120.484969,104.826832 120.484969,105.472795 120.484969,106.118758 C120.394534,113.547329 120.362236,113.870311 113.120994,115.679006 C109.89118,116.492919 106.364224,116.454161 102.979379,116.428323 C99.5945342,116.402484 97.5726708,114.367702 96.8491925,111.215404 C94.6852174,101.803727 97.378882,96.1321739 106.835776,95.576646 C110.265839,95.3763975 113.721739,95.4345342 117.17118,95.1309317 C120.013416,94.8790062 120.762733,96.1257143 120.523727,98.696646 C120.362236,100.505342 120.491429,102.352795 120.491429,104.18087 L120.484969,104.18087 Z" id="Path" fill="#FFFFFF"></path>
                <path d="M296.445217,68.2330435 C296.380621,64.2216149 299.52646,60.7915528 303.279503,60.7850932 C306.838758,60.7850932 310.113789,64.1957764 310.139627,67.9423602 C310.165466,71.6889441 307.077764,75.2804969 303.589565,75.3709317 C299.771925,75.4678261 296.496894,72.2121739 296.445217,68.2330435 Z M306.050683,72.7031056 C306.295478,70.4097891 306.40333,68.1039178 306.373665,65.797764 C306.144536,64.8247273 305.432517,64.0371175 304.487453,63.7113043 C303.234286,63.4852174 300.753789,63.8469565 300.715031,64.1763975 C300.503895,66.9702989 300.445671,69.7736545 300.540621,72.573913 L301.399752,72.573913 L301.95528,69.247205 L302.859627,68.6787578 L306.050683,72.7031056 Z" id="Shape" fill="#FFFFFF"></path>
            </g>
            <path d="M305.076324,63.3793846 C305.704203,63.5946307 306.999992,66.9400961 304.842682,68.2503503 C304.654828,68.3644447 305.373931,69.9198684 306.999992,72.9166212 L305.455422,72.9166212 L303.501553,69.0838249 L301.890431,69.0838249 L301.890431,72.9166212 L300.372671,72.9166212 L300.372671,63.2433946 C303.089853,63.1905572 304.657737,63.2358872 305.076324,63.3793846 Z M304.19672,64.3064101 L301.603617,64.3064101 L301.603617,67.8401068 C303.123641,67.8708777 303.906816,67.8708777 303.953143,67.8401068 C304.996998,67.1467695 305.112254,64.988724 304.19672,64.3064101 L304.19672,64.3064101 Z" id="Combined-Shape" fill="#000000"></path>
        </g>
    </g>
</svg>